<?xml version="1.0" encoding="UTF-8" standalone="no"?>
<!-- Created with Inkscape (http://www.inkscape.org/) -->

<svg
   xmlns:dc="http://purl.org/dc/elements/1.1/"
   xmlns:cc="http://creativecommons.org/ns#"
   xmlns:rdf="http://www.w3.org/1999/02/22-rdf-syntax-ns#"
   xmlns:svg="http://www.w3.org/2000/svg"
   xmlns="http://www.w3.org/2000/svg"
   xmlns:sodipodi="http://sodipodi.sourceforge.net/DTD/sodipodi-0.dtd"
   xmlns:inkscape="http://www.inkscape.org/namespaces/inkscape"
   width="1920mm"
   height="1024mm"
   viewBox="0 0 6803.1496 3628.3464"
   id="svg3473"
   version="1.1"
   inkscape:version="0.91 r13725"
   sodipodi:docname="Layer12.svg">
  <defs
     id="defs3475" />
  <sodipodi:namedview
     id="base"
     pagecolor="#ffffff"
     bordercolor="#666666"
     borderopacity="1.0"
     inkscape:pageopacity="0.0"
     inkscape:pageshadow="2"
     inkscape:zoom="0.175"
     inkscape:cx="3575.6541"
     inkscape:cy="1746.1841"
     inkscape:document-units="px"
     inkscape:current-layer="layer1"
     showgrid="false"
     inkscape:window-width="1863"
     inkscape:window-height="1056"
     inkscape:window-x="57"
     inkscape:window-y="24"
     inkscape:window-maximized="1" />
  <metadata
     id="metadata3478">
    <rdf:RDF>
      <cc:Work
         rdf:about="">
        <dc:format>image/svg+xml</dc:format>
        <dc:type
           rdf:resource="http://purl.org/dc/dcmitype/StillImage" />
        <dc:title></dc:title>
      </cc:Work>
    </rdf:RDF>
  </metadata>
  <g
     inkscape:label="Layer 1"
     inkscape:groupmode="layer"
     id="layer1"
     transform="translate(0,2575.9843)">
    <path
       inkscape:connector-curvature="0"
       id="path3746-6"
       style="display:inline;fill:#ffffff;fill-opacity:1;fill-rule:nonzero;stroke:none;stroke-width:0.25510526"
       d="m 553.8068,-2107.2093 105.59533,0 0,106.2643 24.23542,0 0,-106.2643 105.59533,0 0,-24.4738 -105.59533,0 0,-106.3744 -24.23542,0 0,106.3744 -105.59533,0 0,24.4738" />
    <path
       inkscape:connector-curvature="0"
       id="path3748-4"
       style="display:inline;fill:#ffffff;fill-opacity:1;fill-rule:nonzero;stroke:none;stroke-width:0.25510526"
       d="m 554.34302,-510.60181 -29.12357,-0.15275 0,-127.21713 -16.22982,-11.04552 -65.18336,0 -16.17642,11.04552 0,127.16214 -29.18002,0 c -22.83782,0 -32.18775,10.01895 -20.74208,22.41011 l 18.11024,19.65142 41.53902,44.87521 18.16365,19.64989 41.59266,0 18.21705,-19.70489 41.53915,-44.76674 18.21863,-19.65143 c 11.44555,-12.29035 2.09415,-22.35206 -20.74513,-22.35206" />
    <path
       inkscape:connector-curvature="0"
       id="path3750-0"
       style="display:inline;fill:#ffffff;fill-opacity:1;fill-rule:nonzero;stroke:none;stroke-width:0.25510526"
       d="m 610.12305,-410.02441 -7.79175,7.84835 0,17.05313 -242.51835,0 0,-17.05313 -7.68483,-7.84835 -7.8988,7.84835 0,34.10474 7.8988,7.90334 1.66645,-0.32078 254.71702,0 1.61146,0.32078 7.84527,-7.90334 0,-34.10474 -7.84527,-7.84835" />
    <path
       inkscape:connector-curvature="0"
       id="path3744-6"
       style="display:inline;fill:#ffffff;fill-opacity:1;fill-rule:nonzero;stroke:none;stroke-width:0.25510526"
       d="m 4841.2236,-252.82065 78.2498,0 0,78.81802 17.9376,0 0,-78.81802 78.3597,0 0,-18.08114 -78.3597,0 0,-78.87148 -17.9376,0 0,78.87148 -78.2498,0 0,18.08114" />
  </g>
</svg>
