<?xml version="1.0" encoding="UTF-8" standalone="no"?>
<!-- Created with Inkscape (http://www.inkscape.org/) -->

<svg
   xmlns:dc="http://purl.org/dc/elements/1.1/"
   xmlns:cc="http://creativecommons.org/ns#"
   xmlns:rdf="http://www.w3.org/1999/02/22-rdf-syntax-ns#"
   xmlns:svg="http://www.w3.org/2000/svg"
   xmlns="http://www.w3.org/2000/svg"
   xmlns:sodipodi="http://sodipodi.sourceforge.net/DTD/sodipodi-0.dtd"
   xmlns:inkscape="http://www.inkscape.org/namespaces/inkscape"
   width="1920mm"
   height="1024mm"
   viewBox="0 0 6803.1496 3628.3464"
   id="svg3473"
   version="1.1"
   inkscape:version="0.91 r13725"
   sodipodi:docname="Layer22.svg">
  <defs
     id="defs3475" />
  <sodipodi:namedview
     id="base"
     pagecolor="#ffffff"
     bordercolor="#666666"
     borderopacity="1.0"
     inkscape:pageopacity="0.0"
     inkscape:pageshadow="2"
     inkscape:zoom="0.175"
     inkscape:cx="3575.6541"
     inkscape:cy="1746.1841"
     inkscape:document-units="px"
     inkscape:current-layer="layer1"
     showgrid="false"
     inkscape:window-width="1863"
     inkscape:window-height="1056"
     inkscape:window-x="57"
     inkscape:window-y="24"
     inkscape:window-maximized="1" />
  <metadata
     id="metadata3478">
    <rdf:RDF>
      <cc:Work
         rdf:about="">
        <dc:format>image/svg+xml</dc:format>
        <dc:type
           rdf:resource="http://purl.org/dc/dcmitype/StillImage" />
        <dc:title></dc:title>
      </cc:Work>
    </rdf:RDF>
  </metadata>
  <g
     inkscape:label="Layer 1"
     inkscape:groupmode="layer"
     id="layer1"
     transform="translate(0,2575.9843)">
    <path
       sodipodi:nodetypes="cccscccccccccccccccscccccccccccccssccc"
       d="m 2115.5058,-1535.1742 -299.8273,0 c -24.4938,-105.2674 -77.3921,-205.1315 -158.7971,-287.2041 -116.5555,-117.3463 -273.3878,-171.2271 -426.0344,-171.2271 -152.6656,0 -301.14551,53.8808 -417.58154,171.2271 -81.45628,82.0726 -134.43984,181.9367 -158.91654,287.2041 l -299.84447,0 c 1.72582,-11.4932 3.73994,-22.8666 5.87547,-34.2232 l -174.81904,-46.027 28.96955,-111.5126 175.73889,46.302 c 36.55194,-111.1503 95.41098,-216.2109 176.26991,-308.7638 l -128.49614,-129.5772 80.79059,-81.3349 128.6327,129.4596 c 91.87394,-81.5227 196.1001,-140.6776 306.52406,-177.5842 l -45.98157,-177.0343 110.69903,-29.0947 45.57,175.9665 c 56.2968,-10.9602 113.3447,-16.4658 170.4627,-16.4658 56.843,0 113.7544,5.4374 169.7951,16.3292 l 45.57,-175.8299 110.699,29.0947 -45.9132,176.5696 c 110.5624,36.77 214.9743,95.9061 307.1233,177.4458 l 127.8968,-128.8565 1.3276,1.2138 79.5427,80.1116 1.2707,1.3466 -127.967,128.8393 c 80.8589,92.8261 139.5642,198.008 176.2016,309.314 l 175.2097,-46.1125 3.6034,13.7821 -47.7054,0 c -34.9627,0 -63.316,28.5619 -63.316,63.7826 l 0,69.7716 -38.2949,10.0138 c 2.1355,11.0113 3.9979,21.9714 5.7218,33.0699"
       style="display:inline;fill:#1f3448;fill-opacity:1;fill-rule:nonzero;stroke:none;stroke-width:0.25510526"
       id="path3694-6"
       inkscape:connector-curvature="0" />
    <path
       sodipodi:nodetypes="cccscccccccccccccccscccccccccccccssccc"
       d="m 1367.026,-517.96635 0,-299.82741 c 105.2654,-24.49378 205.1314,-77.392 287.2041,-158.79709 117.3444,-116.55555 175.9493,-269.22105 175.9493,-421.86775 0,-152.6638 -58.6049,-305.3103 -175.9493,-421.7482 -82.0727,-81.4563 -181.9387,-134.4399 -287.2041,-158.9166 l 0,-299.8445 c 11.493,1.7259 22.8665,3.74 34.2229,5.8756 l 46.0252,-174.8172 111.5127,28.9677 -46.3002,175.7389 c 111.1504,36.5519 216.211,95.4109 308.7621,176.2698 l 129.579,-128.4961 81.3329,80.7906 -129.4576,128.6327 c 81.5228,91.8759 140.6757,196.1001 177.5842,306.524 l 177.0322,-45.9796 29.0968,110.6971 -175.9664,45.5701 c 10.96,56.2968 16.4656,113.3465 16.4656,170.4626 0,56.843 -5.4373,113.7544 -16.3291,169.7951 l 175.8299,45.57 -29.0968,110.6991 -176.5675,-45.9114 c -36.7702,110.5605 -95.9079,214.9725 -177.4477,307.12147 l 128.8564,127.8968 -1.2137,1.32758 -80.1117,79.54269 -1.3465,1.27067 -128.8394,-127.96697 c -92.828,80.85887 -198.008,139.5643 -309.3138,176.20161 l 46.1123,175.20973 -13.7822,3.60342 0,-47.70552 c 0,-34.96266 -28.5618,-63.3159 -63.7842,-63.3159 l -70.7846,-40.03971 -8.9989,1.74482 c -11.0133,2.13361 -21.9733,3.99601 -33.0701,5.72186"
       style="display:inline;fill:#1f3448;fill-opacity:1;fill-rule:nonzero;stroke:none;stroke-width:0.25510526"
       id="path3694-6-3"
       inkscape:connector-curvature="0" />
    <path
       sodipodi:nodetypes="cccscccccccccccccccscccccccccccccssccc"
       d="m 1103.9403,-2280.3675 0,299.8293 c -105.26746,24.4919 -205.13149,77.3901 -287.20422,158.7952 -117.34635,116.5574 -175.94933,269.2211 -175.94933,421.8677 0,152.6637 58.60298,305.3122 175.94933,421.74825 82.07273,81.45629 181.93676,134.43986 287.20422,158.91658 l 0,299.84638 c -11.4932,-1.72585 -22.8666,-3.74188 -34.2232,-5.87548 l -46.027,174.81714 -111.51264,-28.96961 46.30208,-175.73886 C 847.32913,-591.68287 742.26857,-650.54191 649.71758,-731.40079 l -129.57906,128.4961 -81.33488,-80.79059 129.45949,-128.63266 C 486.74053,-904.20191 427.58562,-1008.4261 390.67894,-1118.852 l -177.03418,45.9815 -29.09477,-110.699 175.96641,-45.57 c -10.96004,-56.2968 -16.46569,-113.3447 -16.46569,-170.4627 0,-56.8431 5.43732,-113.7543 16.32921,-169.7952 l -175.82993,-45.5699 29.09477,-110.699 176.56958,45.9133 c 36.77002,-110.5625 95.90603,-214.9745 177.44571,-307.1234 l -128.85641,-127.8969 1.21379,-1.3275 80.11164,-79.5427 1.34654,-1.2707 128.83933,127.9651 c 92.82793,-80.8589 198.00799,-139.5643 309.31396,-176.2016 l -46.11251,-175.2097 13.78216,-3.6034 0,47.7055 c 0,34.9627 28.56186,63.3158 63.78243,63.3158 l 73.19312,34.3426 6.5923,3.9524 c 11.0113,-2.1355 21.9715,-3.9979 33.07,-5.7219"
       style="display:inline;fill:#1f3448;fill-opacity:1;fill-rule:nonzero;stroke:none;stroke-width:0.25510526"
       id="path3694-6-4"
       inkscape:connector-curvature="0" />
    <path
       sodipodi:nodetypes="cccscccccccccccccccscccccccccccccssccc"
       d="m 357.86503,-1268.8568 299.82939,0 c 24.49378,105.2673 77.39193,205.1314 158.79705,287.2041 116.55559,117.34635 269.21923,175.94937 421.86763,175.94937 152.6638,0 305.3103,-58.60302 421.7484,-175.94937 81.4562,-82.0727 134.4398,-181.9368 158.9146,-287.2041 l 299.8464,0 c -1.7258,11.493 -3.74,22.8666 -5.8756,34.223 l 174.8172,46.0271 -28.9677,111.5126 -175.7408,-46.302 c -36.552,111.1503 -95.411,216.21094 -176.2679,308.76197 l 128.4942,129.57903 -80.7887,81.3349 -128.6326,-129.45953 c -91.8759,81.52265 -196.1002,140.67756 -306.5242,177.58419 l 45.9797,177.03418 -110.6971,29.09479 -45.5701,-175.96646 c -56.2968,10.9601 -113.3464,16.46575 -170.4626,16.46575 -56.843,0 -113.7562,-5.43737 -169.797,-16.32919 l -45.57,175.8299 -110.69712,-29.09479 45.91136,-176.56954 C 847.91903,-591.90097 743.50698,-651.03691 651.35807,-732.57664 l -127.89869,128.85644 -1.32763,-1.21378 -79.54264,-80.11164 -1.27067,-1.34654 127.96693,-128.83938 C 488.42654,-908.05946 429.72106,-1013.2395 393.08379,-1124.5454 l -175.20977,46.1124 -3.60528,-13.7822 47.70553,0 c 34.96453,0 63.31774,-28.5618 63.31774,-63.7824 l 35.22249,-73.138 3.07053,-6.6474 c -2.13362,-11.0113 -3.996,-21.9715 -5.72182,-33.0701"
       style="display:inline;fill:#1f3448;fill-opacity:1;fill-rule:nonzero;stroke:none;stroke-width:0.25510526"
       id="path3694-6-42"
       inkscape:connector-curvature="0" />
  </g>
</svg>
