<?xml version="1.0" encoding="UTF-8" standalone="no"?>
<!-- Created with Inkscape (http://www.inkscape.org/) -->

<svg
   xmlns:dc="http://purl.org/dc/elements/1.1/"
   xmlns:cc="http://creativecommons.org/ns#"
   xmlns:rdf="http://www.w3.org/1999/02/22-rdf-syntax-ns#"
   xmlns:svg="http://www.w3.org/2000/svg"
   xmlns="http://www.w3.org/2000/svg"
   xmlns:sodipodi="http://sodipodi.sourceforge.net/DTD/sodipodi-0.dtd"
   xmlns:inkscape="http://www.inkscape.org/namespaces/inkscape"
   width="1920mm"
   height="1024mm"
   viewBox="0 0 6803.1496 3628.3464"
   id="svg3473"
   version="1.1"
   inkscape:version="0.91 r13725"
   sodipodi:docname="Layer3.svg">
  <defs
     id="defs3475" />
  <sodipodi:namedview
     id="base"
     pagecolor="#ffffff"
     bordercolor="#666666"
     borderopacity="1.0"
     inkscape:pageopacity="0.0"
     inkscape:pageshadow="2"
     inkscape:zoom="0.175"
     inkscape:cx="3575.6541"
     inkscape:cy="1746.1841"
     inkscape:document-units="px"
     inkscape:current-layer="layer1"
     showgrid="false"
     inkscape:window-width="1863"
     inkscape:window-height="1056"
     inkscape:window-x="57"
     inkscape:window-y="24"
     inkscape:window-maximized="1" />
  <metadata
     id="metadata3478">
    <rdf:RDF>
      <cc:Work
         rdf:about="">
        <dc:format>image/svg+xml</dc:format>
        <dc:type
           rdf:resource="http://purl.org/dc/dcmitype/StillImage" />
        <dc:title></dc:title>
      </cc:Work>
    </rdf:RDF>
  </metadata>
  <g
     inkscape:label="Layer 1"
     inkscape:groupmode="layer"
     id="layer1"
     transform="translate(0,2575.9843)">
    <path
       inkscape:connector-curvature="0"
       id="path3698-9"
       style="display:inline;fill:#ffffff;fill-opacity:1;fill-rule:nonzero;stroke:none;stroke-width:0.25510526"
       d="m 1834.0292,-1831.8588 -10.4234,1.167 c 6.7176,-32.4212 10.4234,-65.8313 10.4234,-100.0756 0,-262.8603 -207.8207,-476.0128 -464.2469,-476.0128 -66.8328,0 -130.0304,15.0483 -187.3698,41.2213 -45.434,20.7398 -87.3532,48.4069 -123.8452,82.1825 -47.5016,-18.5206 -99.06914,-29.2282 -153.03184,-29.2282 -227.4284,0 -413.04102,180.6778 -428.85767,409.6248 -147.46662,33.3547 -257.90713,167.7434 -257.90713,328.8963 0,175.2466 130.77129,319.1816 297.69,335.3912 l -0.21044,1.6262 31.35764,0 634.80094,0 651.6168,0 20.7272,0 0.7384,-2.1695 c 150.0857,-11.4556 268.7446,-138.4502 268.7446,-295.1953 0,-164.2769 -129.8926,-297.4337 -290.2127,-297.4337" />
  </g>
</svg>
