<?xml version="1.0" encoding="UTF-8" standalone="no"?>
<!-- Created with Inkscape (http://www.inkscape.org/) -->

<svg
   xmlns:dc="http://purl.org/dc/elements/1.1/"
   xmlns:cc="http://creativecommons.org/ns#"
   xmlns:rdf="http://www.w3.org/1999/02/22-rdf-syntax-ns#"
   xmlns:svg="http://www.w3.org/2000/svg"
   xmlns="http://www.w3.org/2000/svg"
   xmlns:sodipodi="http://sodipodi.sourceforge.net/DTD/sodipodi-0.dtd"
   xmlns:inkscape="http://www.inkscape.org/namespaces/inkscape"
   width="1920mm"
   height="1024mm"
   viewBox="0 0 6803.1496 3628.3464"
   id="svg3473"
   version="1.1"
   inkscape:version="0.91 r13725"
   sodipodi:docname="Layer4.svg">
  <defs
     id="defs3475" />
  <sodipodi:namedview
     id="base"
     pagecolor="#ffffff"
     bordercolor="#666666"
     borderopacity="1.0"
     inkscape:pageopacity="0.0"
     inkscape:pageshadow="2"
     inkscape:zoom="0.175"
     inkscape:cx="3575.6541"
     inkscape:cy="1746.1841"
     inkscape:document-units="px"
     inkscape:current-layer="layer1"
     showgrid="false"
     inkscape:window-width="1863"
     inkscape:window-height="1056"
     inkscape:window-x="57"
     inkscape:window-y="24"
     inkscape:window-maximized="1" />
  <metadata
     id="metadata3478">
    <rdf:RDF>
      <cc:Work
         rdf:about="">
        <dc:format>image/svg+xml</dc:format>
        <dc:type
           rdf:resource="http://purl.org/dc/dcmitype/StillImage" />
        <dc:title></dc:title>
      </cc:Work>
    </rdf:RDF>
  </metadata>
  <g
     inkscape:label="Layer 1"
     inkscape:groupmode="layer"
     id="layer1"
     transform="translate(0,2575.9843)">
    <path
       inkscape:connector-curvature="0"
       id="path3700-6"
       style="display:inline;fill:#274258;fill-opacity:1;fill-rule:nonzero;stroke:none;stroke-width:0.25510526"
       d="m 2046.4099,595.01268 c -667.8967,0 -1209.30324,-129.47205 -1209.30324,-289.15017 0,-159.67669 541.40654,-289.151611 1209.30324,-289.151611 667.8409,0 1209.3728,129.474921 1209.3728,289.151611 0,159.67812 -541.5319,289.15017 -1209.3728,289.15017" />
    <path
       inkscape:connector-curvature="0"
       id="path3730-4"
       style="display:inline;fill:#bdbcbc;fill-opacity:1;fill-rule:nonzero;stroke:none;stroke-width:0.25510526"
       d="m 2643.1514,251.89784 -1203.6016,0 -14.6502,13.4418 14.6502,13.49153 1203.6016,0 14.6919,-13.49153 -14.6919,-13.4418" />
    <path
       inkscape:connector-curvature="0"
       id="path3728-9"
       style="display:inline;fill:#e9e9e9;fill-opacity:1;fill-rule:nonzero;stroke:none;stroke-width:0.25397104"
       d="m 2558.9232,200.24993 -0.8512,-0.39773 -1013.9284,0 -100.101,52.50302 -0.7429,0.80967 1203.6032,0 -0.2785,-0.49717 -87.6966,-52.40217" />
    <path
       inkscape:connector-curvature="0"
       id="path3740-4"
       style="display:inline;fill:#ffffff;fill-opacity:1;fill-rule:nonzero;stroke:none;stroke-width:0.25510526"
       d="m 2464.0718,-115.0267 -829.2741,0 0,315.27663 829.2741,0 0,-315.27663" />
    <path
       inkscape:connector-curvature="0"
       id="path3742-5"
       style="display:inline;fill:#e9e9e9;fill-opacity:1;fill-rule:nonzero;stroke:none;stroke-width:0.25510526"
       d="m 2464.0718,-52.756601 -829.2741,0 0,33.1237 829.2741,0 0,-33.1237" />
    <path
       inkscape:connector-curvature="0"
       id="path3732-4"
       style="display:inline;fill:#53748a;fill-opacity:1;fill-rule:nonzero;stroke:none;stroke-width:0.25510526"
       d="m 570.03342,-51.699801 2974.20348,0 c 32.3507,0 58.486,-24.1635 58.486,-53.964699 l 0,-1999.186 c 0,-29.8453 -26.1353,-54.0087 -58.486,-54.0087 l -2974.20348,0 c -32.22534,0 -58.47053,24.1634 -58.47053,54.0087 l 0,1999.186 c 0,29.801199 26.24519,53.964699 58.47053,53.964699" />
    <path
       inkscape:connector-curvature="0"
       id="path3738-8"
       style="display:inline;fill:#ffffff;fill-opacity:1;fill-rule:nonzero;stroke:none;stroke-width:0.25510526"
       d="m 511.56289,-105.6645 c 0,29.801199 26.24519,53.964699 58.47053,53.964699 l 2974.20348,0 c 32.3507,0 58.486,-24.1635 58.486,-53.964699 l 0,-212.2309 -3091.16001,0 0,212.2309" />
    <path
       inkscape:connector-curvature="0"
       id="path3736-2"
       style="display:inline;fill:#47b7c9;fill-opacity:1;fill-rule:nonzero;stroke:none;stroke-width:0.25510526"
       d="m 598.13426,-442.4867 2896.56674,0 0,-1595.7627 -2896.56674,0 z" />
    <path
       inkscape:connector-curvature="0"
       id="path3752-2"
       style="display:inline;fill:#99deea;fill-opacity:1;fill-rule:nonzero;stroke:none;stroke-width:0.25510526"
       d="m 598.13426,-1950.9153 2896.56514,0 0,-121.5203 -2896.56514,0 z" />
    <path
       inkscape:connector-curvature="0"
       id="path3758-2"
       style="display:inline;fill:#ffffff;fill-opacity:1;fill-rule:nonzero;stroke:none;stroke-width:0.25510526"
       d="m 699.13136,-1977.5915 0,0 c -20.41981,0 -36.90856,-15.297 -36.90856,-34.0342 0,-18.9177 16.48875,-34.1252 36.90856,-34.1252 20.36409,0 36.86677,15.2075 36.86677,34.1252 0,18.7372 -16.50268,34.0342 -36.86677,34.0342" />
    <path
       inkscape:connector-curvature="0"
       id="path3758-9"
       style="display:inline;fill:#ffffff;fill-opacity:1;fill-rule:nonzero;stroke:none;stroke-width:0.25510526"
       d="m 824.40812,-1977.5915 0,0 c -20.41981,0 -36.90856,-15.297 -36.90856,-34.0342 0,-18.9177 16.48875,-34.1252 36.90856,-34.1252 20.36409,0 36.86677,15.2075 36.86677,34.1252 0,18.7372 -16.50268,34.0342 -36.86677,34.0342" />
    <path
       inkscape:connector-curvature="0"
       id="path3758-28"
       style="display:inline;fill:#ffffff;fill-opacity:1;fill-rule:nonzero;stroke:none;stroke-width:0.25510526"
       d="m 942.18803,-1977.5915 0,0 c -20.41981,0 -36.90856,-15.297 -36.90856,-34.0342 0,-18.9177 16.48875,-34.1252 36.90856,-34.1252 20.36409,0 36.86677,15.2075 36.86677,34.1252 0,18.7372 -16.50268,34.0342 -36.86677,34.0342" />
  </g>
</svg>
