<?xml version="1.0" encoding="UTF-8" standalone="no"?>
<!-- Created with Inkscape (http://www.inkscape.org/) -->

<svg
   xmlns:dc="http://purl.org/dc/elements/1.1/"
   xmlns:cc="http://creativecommons.org/ns#"
   xmlns:rdf="http://www.w3.org/1999/02/22-rdf-syntax-ns#"
   xmlns:svg="http://www.w3.org/2000/svg"
   xmlns="http://www.w3.org/2000/svg"
   xmlns:sodipodi="http://sodipodi.sourceforge.net/DTD/sodipodi-0.dtd"
   xmlns:inkscape="http://www.inkscape.org/namespaces/inkscape"
   width="1920mm"
   height="1024mm"
   viewBox="0 0 6803.1496 3628.3464"
   id="svg3473"
   version="1.1"
   inkscape:version="0.91 r13725"
   sodipodi:docname="Layer11.svg">
  <defs
     id="defs3475" />
  <sodipodi:namedview
     id="base"
     pagecolor="#ffffff"
     bordercolor="#666666"
     borderopacity="1.0"
     inkscape:pageopacity="0.0"
     inkscape:pageshadow="2"
     inkscape:zoom="0.175"
     inkscape:cx="3575.6541"
     inkscape:cy="1746.1841"
     inkscape:document-units="px"
     inkscape:current-layer="layer1"
     showgrid="false"
     inkscape:window-width="1863"
     inkscape:window-height="1056"
     inkscape:window-x="57"
     inkscape:window-y="24"
     inkscape:window-maximized="1" />
  <metadata
     id="metadata3478">
    <rdf:RDF>
      <cc:Work
         rdf:about="">
        <dc:format>image/svg+xml</dc:format>
        <dc:type
           rdf:resource="http://purl.org/dc/dcmitype/StillImage" />
        <dc:title></dc:title>
      </cc:Work>
    </rdf:RDF>
  </metadata>
  <g
     inkscape:label="Layer 1"
     inkscape:groupmode="layer"
     id="layer1"
     transform="translate(0,2575.9843)">
    <path
       inkscape:connector-curvature="0"
       id="path3848-1"
       style="display:inline;fill:#2f506a;fill-opacity:1;fill-rule:nonzero;stroke:none;stroke-width:0.25510526"
       d="m 2057.9761,-1646.5047 -669.0638,-360.3648 -35.7056,21.4539 0,720.9731 35.7056,21.4842 669.0638,-360.4865 0,-43.0599" />
    <path
       inkscape:connector-curvature="0"
       id="path3858-6"
       style="display:inline;fill:#2f506a;fill-opacity:1;fill-rule:nonzero;stroke:none;stroke-width:0.25510526"
       d="m 1628.7101,-2214.517 c -322.6328,0 -585.1598,264.4856 -585.1598,589.4661 0,325.2545 262.527,589.5878 585.1598,589.5878 322.6328,0 585.2816,-264.3333 585.2816,-589.5878 0,-324.9805 -262.6488,-589.4661 -585.2816,-589.4661 z m 0,1219.22834 c -344.6617,0 -625.1615,-282.44164 -625.1615,-629.76224 0,-347.1684 280.4998,-629.61 625.1615,-629.61 344.5095,0 624.8876,282.4416 624.8876,629.61 0,347.3206 -280.3781,629.76224 -624.8876,629.76224" />
    <path
       inkscape:connector-curvature="0"
       id="path3844-6"
       style="display:inline;fill:#2f506a;fill-opacity:1;fill-rule:nonzero;stroke:none;stroke-width:0.25510526"
       d="m 2894.5672,-663.46814 -2531.99154,0 0,237.14226 2531.99154,0 0,-237.14226" />
    <path
       inkscape:connector-curvature="0"
       id="path3850-3"
       style="display:inline;fill:#ffffff;fill-opacity:1;fill-rule:nonzero;stroke:none;stroke-width:0.25510526"
       d="m 598.199,-552.30876 -89.84082,-48.45886 -4.87806,2.8754 0,96.73504 4.87806,3.0107 89.84082,-48.30662 0,-5.86243" />
    <path
       inkscape:connector-curvature="0"
       id="path3856-5"
       style="display:inline;fill:#ffffff;fill-opacity:1;fill-rule:nonzero;stroke:none;stroke-width:0.25510526"
       d="m 670.67927,-598.25081 29.64364,0 0,97.59428 -29.64364,0 0,-97.59428" />
    <path
       inkscape:connector-curvature="0"
       id="path3856-7"
       style="display:inline;fill:#ffffff;fill-opacity:1;fill-rule:nonzero;stroke:none;stroke-width:0.25510526"
       d="m 728.7758,-598.25081 29.64364,0 0,97.59428 -29.64364,0 0,-97.59428" />
    <path
       inkscape:connector-curvature="0"
       id="path3852-1"
       style="display:inline;fill:#ffffff;fill-opacity:1;fill-rule:nonzero;stroke:none;stroke-width:0.25510526"
       d="m 846.9545,-596.19405 92.92261,0 0,93.51122 -92.92261,0 0,-93.51122" />
    <path
       inkscape:connector-curvature="0"
       id="path3846-3"
       style="display:inline;fill:#ffffff;fill-opacity:1;fill-rule:nonzero;stroke:none;stroke-width:0.25510526"
       d="m 2559.4449,-527.63449 -1411.7612,0 0,-34.52503 1411.7612,0 0,34.52503" />
  </g>
</svg>
