<?xml version="1.0" encoding="UTF-8" standalone="no"?>
<!-- Created with Inkscape (http://www.inkscape.org/) -->

<svg
   xmlns:dc="http://purl.org/dc/elements/1.1/"
   xmlns:cc="http://creativecommons.org/ns#"
   xmlns:rdf="http://www.w3.org/1999/02/22-rdf-syntax-ns#"
   xmlns:svg="http://www.w3.org/2000/svg"
   xmlns="http://www.w3.org/2000/svg"
   xmlns:sodipodi="http://sodipodi.sourceforge.net/DTD/sodipodi-0.dtd"
   xmlns:inkscape="http://www.inkscape.org/namespaces/inkscape"
   width="1920mm"
   height="1024mm"
   viewBox="0 0 6803.1496 3628.3464"
   id="svg3473"
   version="1.1"
   inkscape:version="0.91 r13725"
   sodipodi:docname="Layer8.svg">
  <defs
     id="defs3475" />
  <sodipodi:namedview
     id="base"
     pagecolor="#ffffff"
     bordercolor="#666666"
     borderopacity="1.0"
     inkscape:pageopacity="0.0"
     inkscape:pageshadow="2"
     inkscape:zoom="0.175"
     inkscape:cx="3575.6541"
     inkscape:cy="1746.1841"
     inkscape:document-units="px"
     inkscape:current-layer="layer1"
     showgrid="false"
     inkscape:window-width="1863"
     inkscape:window-height="1056"
     inkscape:window-x="57"
     inkscape:window-y="24"
     inkscape:window-maximized="1" />
  <metadata
     id="metadata3478">
    <rdf:RDF>
      <cc:Work
         rdf:about="">
        <dc:format>image/svg+xml</dc:format>
        <dc:type
           rdf:resource="http://purl.org/dc/dcmitype/StillImage" />
        <dc:title></dc:title>
      </cc:Work>
    </rdf:RDF>
  </metadata>
  <g
     inkscape:label="Layer 1"
     inkscape:groupmode="layer"
     id="layer1"
     transform="translate(0,2575.9843)">
    <path
       inkscape:connector-curvature="0"
       id="path3892-4-1"
       style="display:inline;fill:#2f506a;fill-opacity:1;fill-rule:nonzero;stroke:none;stroke-width:0.25510526"
       d="m 2742.8209,-665.58916 -2462.78467,0 0,230.49126 2462.78467,0 0,-230.49126" />
    <path
       inkscape:connector-curvature="0"
       id="path3896-2-7"
       style="display:inline;fill:#ffffff;fill-opacity:1;fill-rule:nonzero;stroke:none;stroke-width:0.25510526"
       d="m 504.42253,-554.99233 -87.4031,-47.14234 -4.6812,2.80438 0,94.15885 4.6812,2.91224 87.4031,-47.14594 0,-5.60516" />
    <path
       inkscape:connector-curvature="0"
       id="path3902-3-7"
       style="display:inline;fill:#ffffff;fill-opacity:1;fill-rule:nonzero;stroke:none;stroke-width:0.25510526"
       d="m 579.55113,-602.2677 28.8384,0 0,94.92826 -28.8384,0 0,-94.92826" />
    <path
       inkscape:connector-curvature="0"
       id="path3902-3-5"
       style="display:inline;fill:#ffffff;fill-opacity:1;fill-rule:nonzero;stroke:none;stroke-width:0.25510526"
       d="m 636.08823,-602.2677 28.8419,0 0,94.92826 -28.8419,0 0,-94.92826" />
    <path
       inkscape:connector-curvature="0"
       id="path3898-8-3"
       style="display:inline;fill:#ffffff;fill-opacity:1;fill-rule:nonzero;stroke:none;stroke-width:0.25510526"
       d="m 751.19003,-600.35497 90.1859,0 0,90.97696 -90.1859,0 0,-90.97696" />
    <path
       inkscape:connector-curvature="0"
       id="path3894-4-5"
       style="display:inline;fill:#ffffff;fill-opacity:1;fill-rule:nonzero;stroke:none;stroke-width:0.25510526"
       d="m 2416.7542,-533.58916 -1373.2544,0 0,-33.63458 1373.2544,0 0,33.63458" />
    <path
       inkscape:connector-curvature="0"
       id="path3906-9"
       style="display:inline;fill:#f2fbfe;fill-opacity:1;fill-rule:nonzero;stroke:none;stroke-width:0.25510526"
       d="m 1511.3746,-2003.9542 c -52.2621,0 -94.7485,-42.6985 -94.7485,-95.4424 0,-52.7439 42.4864,-95.5719 94.7485,-95.5719 52.4887,0 94.7126,42.828 94.7126,95.5719 0,52.7439 -42.2239,95.4424 -94.7126,95.4424" />
    <path
       inkscape:connector-curvature="0"
       id="path3932-8"
       style="display:inline;fill:#f6fcfe;fill-opacity:1;fill-rule:nonzero;stroke:none;stroke-width:0.25510526"
       d="m 1726.7654,-1958.7462 c -12.6593,0 -25.5451,-2.5527 -37.949,-8.0248 -35.5186,-15.5248 -56.7923,-50.558 -56.9218,-87.3852 0,-12.7528 2.5168,-25.7356 7.9638,-38.2295 15.5751,-35.8134 50.353,-57.2093 86.7811,-57.2093 12.7887,0 25.5451,2.5527 37.949,8.0212 35.6804,15.5284 56.9218,50.5939 56.9218,87.2881 0,12.7204 -2.5168,25.7356 -7.8343,38.2295 -15.5751,35.914 -50.353,57.31 -86.907,57.31" />
    <path
       inkscape:connector-curvature="0"
       id="path3914-8"
       style="display:inline;fill:#fcfeff;fill-opacity:1;fill-rule:nonzero;stroke:none;stroke-width:0.25510526"
       d="m 1892.3244,-1844.9387 c -24.283,0 -48.5697,-9.2976 -67.0246,-28.0546 -18.4586,-18.5916 -27.6843,-43.0544 -27.6843,-67.3878 0,-24.4628 9.2293,-48.9293 27.6843,-67.5209 18.4549,-18.7569 42.7416,-28.0509 67.0246,-28.0509 24.1573,0 48.4439,9.294 67.0607,28.0509 18.4585,18.5916 27.6842,43.0581 27.6842,67.5209 0,24.3334 -9.2292,48.7962 -27.6842,67.3878 -18.6168,18.757 -42.9034,28.0546 -67.0607,28.0546" />
    <path
       inkscape:connector-curvature="0"
       id="path3922-9"
       style="display:inline;fill:#feffff;fill-opacity:1;fill-rule:nonzero;stroke:none;stroke-width:0.25510526"
       d="m 2012.8768,-1659.5692 c -37.8196,0 -73.6006,-23.0607 -88.2984,-60.6393 -4.4043,-11.48 -6.5759,-23.3195 -6.5759,-34.9002 0,-38.1 22.8916,-74.0428 60.2258,-88.8197 11.2391,-4.4691 23.0247,-6.6227 34.5191,-6.6227 37.8196,0 73.6329,23.0607 88.302,60.6393 4.4007,11.48 6.5723,23.3195 6.5723,34.9002 0,38.1 -22.8916,74.0428 -60.2258,88.8197 -11.365,4.4691 -23.0247,6.6227 -34.5191,6.6227" />
    <path
       inkscape:connector-curvature="0"
       id="path3910-3"
       style="display:inline;fill:#ffffff;fill-opacity:1;fill-rule:nonzero;stroke:none;stroke-width:0.25510526"
       d="m 2050.0492,-1461.447 c -52.2297,0 -94.7125,-42.5331 -94.7125,-95.277 0,-52.7763 42.4828,-95.4424 94.7125,-95.4424 52.3916,0 94.7449,42.6661 94.7449,95.4424 0,52.7439 -42.3533,95.277 -94.7449,95.277" />
    <path
       inkscape:connector-curvature="0"
       id="path3930-8"
       style="display:inline;fill:#ffffff;fill-opacity:1;fill-rule:nonzero;stroke:none;stroke-width:0.25510526"
       d="m 2005.0425,-1244.3053 c -12.6628,0 -25.4192,-2.5527 -37.6901,-7.8918 -35.6839,-15.8196 -56.9253,-50.7233 -56.9253,-87.547 0,-12.7563 2.4089,-25.7392 7.8343,-38.2294 15.6721,-35.9141 50.4824,-57.3424 86.9106,-57.3424 12.6269,0 25.545,2.6605 37.8195,8.0212 35.648,15.6902 56.8894,50.5939 56.8894,87.4176 0,12.7563 -2.5167,25.7356 -7.8343,38.2294 -15.6722,35.9141 -50.4465,57.3424 -87.0041,57.3424" />
    <path
       inkscape:connector-curvature="0"
       id="path3918-3"
       style="display:inline;fill:#b9e8f2;fill-opacity:1;fill-rule:nonzero;stroke:none;stroke-width:0.25510526"
       d="m 1892.3244,-1077.6568 c -24.283,0 -48.5697,-9.2976 -67.0246,-27.8892 -18.4586,-18.624 -27.6843,-43.0904 -27.6843,-67.5532 0,-24.3334 9.2257,-48.7962 27.6843,-67.5209 18.4549,-18.5916 42.7416,-27.7885 67.0246,-27.7885 24.1573,0 48.4439,9.1969 67.0607,27.7885 18.4585,18.7247 27.6842,43.1875 27.6842,67.5209 0,24.4628 -9.2292,48.9292 -27.6842,67.5532 -18.6168,18.5916 -42.9034,27.8892 -67.0607,27.8892" />
    <path
       inkscape:connector-curvature="0"
       id="path3926-6"
       style="display:inline;fill:#beeaf3;fill-opacity:1;fill-rule:nonzero;stroke:none;stroke-width:0.25510526"
       d="m 1708.3104,-956.21997 c -37.8196,0 -73.6329,-23.06063 -88.302,-60.66813 -4.4331,-11.4512 -6.5723,-23.1936 -6.4429,-34.9037 0,-37.967 22.7622,-73.9134 60.0641,-88.6867 11.4008,-4.4367 23.0246,-6.6227 34.5514,-6.6227 37.8195,0 73.4711,23.0607 88.1366,60.6681 4.5661,11.4512 6.7377,23.2908 6.7377,35.0332 0,37.967 -22.7982,73.78395 -60.1,88.56087 -11.3973,4.43308 -23.1505,6.61906 -34.6449,6.61906" />
    <path
       inkscape:connector-curvature="0"
       id="path3904-3"
       style="display:inline;fill:#c3ebf4;fill-opacity:1;fill-rule:nonzero;stroke:none;stroke-width:0.25510526"
       d="m 1511.3746,-918.64128 c -52.2621,0 -94.7485,-42.79556 -94.7485,-95.57182 0,-52.6145 42.4864,-95.2806 94.7485,-95.2806 52.4887,0 94.7126,42.6661 94.7126,95.2806 0,52.77626 -42.2239,95.57182 -94.7126,95.57182" />
    <path
       inkscape:connector-curvature="0"
       id="path3934-4"
       style="display:inline;fill:#c8edf5;fill-opacity:1;fill-rule:nonzero;stroke:none;stroke-width:0.25510526"
       d="m 1296.0881,-963.88528 c -12.652,0 -25.5486,-2.5527 -37.9454,-8.02484 -35.5437,-15.65419 -56.7923,-50.55798 -56.9181,-87.38158 0,-12.7563 2.5168,-25.7392 7.9673,-38.1 15.4313,-36.0759 50.4681,-57.4718 87.0221,-57.4718 12.6485,0 25.4228,2.5527 37.6901,7.8918 35.6696,15.6901 56.9182,50.8527 56.9182,87.6764 0,12.724 -2.5168,25.7392 -7.8415,38.1971 -15.683,35.81695 -50.4645,57.21292 -86.8927,57.21292" />
    <path
       inkscape:connector-curvature="0"
       id="path3912-5"
       style="display:inline;fill:#cdeff6;fill-opacity:1;fill-rule:nonzero;stroke:none;stroke-width:0.25510526"
       d="m 1130.5219,-1077.6568 c -24.2867,0 -48.4439,-9.2976 -66.9132,-27.8892 -18.5952,-18.624 -27.954,-43.0904 -27.954,-67.5532 0,-24.3334 9.3588,-48.7962 27.954,-67.5209 18.4693,-18.5916 42.6265,-27.7885 66.9132,-27.7885 24.1572,0 48.4438,9.1969 66.9096,27.7885 18.4658,18.7247 27.8245,43.1875 27.8245,67.5209 0,24.4628 -9.3587,48.9292 -27.8245,67.5532 -18.4658,18.5916 -42.7524,27.8892 -66.9096,27.8892" />
    <path
       inkscape:connector-curvature="0"
       id="path3920-7"
       style="display:inline;fill:#d1f0f7;fill-opacity:1;fill-rule:nonzero;stroke:none;stroke-width:0.25510526"
       d="m 1009.9803,-1262.9293 c -37.81957,0 -73.48907,-22.9312 -88.28397,-60.6357 -4.4295,-11.4836 -6.5795,-23.3231 -6.5795,-35.0332 0,-37.9669 22.8952,-73.9133 60.2042,-88.5608 11.3865,-4.5985 23.147,-6.6227 34.65927,-6.6227 37.8196,0 73.4855,22.8018 88.1618,60.3769 4.5517,11.613 6.5759,23.4525 6.5759,35.0655 0,38.1 -22.7694,74.0105 -60.082,88.658 -11.5088,4.5984 -23.147,6.752 -34.6557,6.752" />
    <path
       inkscape:connector-curvature="0"
       id="path3908-1"
       style="display:inline;fill:#d7f2f8;fill-opacity:1;fill-rule:nonzero;stroke:none;stroke-width:0.25510526"
       d="m 972.66773,-1461.447 c -52.3664,0 -94.7377,-42.5331 -94.7377,-95.277 0,-52.7763 42.3713,-95.4424 94.7377,-95.4424 52.36637,0 94.86347,42.6661 94.86347,95.4424 0,52.7439 -42.4971,95.277 -94.86347,95.277" />
    <path
       inkscape:connector-curvature="0"
       id="path3928-7"
       style="display:inline;fill:#e3f6fa;fill-opacity:1;fill-rule:nonzero;stroke:none;stroke-width:0.25510526"
       d="m 1017.5701,-1678.2939 c -12.6485,0 -25.42637,-2.5527 -37.81957,-7.8918 -35.5437,-15.6901 -56.7923,-50.7233 -56.9181,-87.4175 0,-12.7204 2.5167,-25.7356 7.9673,-38.2295 15.4313,-35.914 50.3422,-57.4394 86.89617,-57.4394 12.6449,0 25.4228,2.5527 37.8196,8.0248 35.5401,15.6542 56.7923,50.6874 56.9181,87.5147 0,12.7527 -2.5167,25.7355 -7.9709,38.2294 -15.5571,35.8134 -50.3386,57.3424 -86.8926,57.2129" />
    <path
       inkscape:connector-curvature="0"
       id="path3916-3"
       style="display:inline;fill:#e8f7fb;fill-opacity:1;fill-rule:nonzero;stroke:none;stroke-width:0.25510526"
       d="m 1130.5219,-1844.9387 c -24.2867,0 -48.4439,-9.2976 -66.9132,-28.0546 -18.5952,-18.5916 -27.954,-43.0544 -27.954,-67.3878 0,-24.4628 9.3588,-48.9293 27.954,-67.5209 18.4693,-18.7569 42.6265,-28.0509 66.9132,-28.0509 24.1572,0 48.4438,9.294 66.9096,28.0509 18.4658,18.5916 27.8245,43.0581 27.8245,67.5209 0,24.3334 -9.3587,48.7962 -27.8245,67.3878 -18.4658,18.757 -42.7524,28.0546 -66.9096,28.0546" />
    <path
       inkscape:connector-curvature="0"
       id="path3924-0"
       style="display:inline;fill:#edf9fd;fill-opacity:1;fill-rule:nonzero;stroke:none;stroke-width:0.25510526"
       d="m 1314.4281,-1966.5086 c -37.8196,0 -73.3633,-22.8018 -88.0324,-60.3768 -4.5553,-11.6131 -6.7053,-23.3231 -6.7053,-35.0656 0,-38.0964 22.8952,-74.0104 60.2078,-88.6579 11.383,-4.5985 23.0211,-6.6514 34.5299,-6.6514 37.9454,0 73.6149,22.9635 88.2876,60.5386 4.4259,11.4476 6.5759,23.3231 6.5759,35.0332 0,37.967 -22.8952,73.9134 -60.2043,88.5573 -11.3865,4.5984 -23.1505,6.6226 -34.6592,6.6226" />
  </g>
</svg>
