<?xml version="1.0" encoding="UTF-8" standalone="no"?>
<!-- Created with Inkscape (http://www.inkscape.org/) -->

<svg
   xmlns:dc="http://purl.org/dc/elements/1.1/"
   xmlns:cc="http://creativecommons.org/ns#"
   xmlns:rdf="http://www.w3.org/1999/02/22-rdf-syntax-ns#"
   xmlns:svg="http://www.w3.org/2000/svg"
   xmlns="http://www.w3.org/2000/svg"
   xmlns:sodipodi="http://sodipodi.sourceforge.net/DTD/sodipodi-0.dtd"
   xmlns:inkscape="http://www.inkscape.org/namespaces/inkscape"
   width="1920mm"
   height="1024mm"
   viewBox="0 0 6803.1496 3628.3464"
   id="svg3473"
   version="1.1"
   inkscape:version="0.91 r13725"
   sodipodi:docname="Layer5.svg">
  <defs
     id="defs3475" />
  <sodipodi:namedview
     id="base"
     pagecolor="#ffffff"
     bordercolor="#666666"
     borderopacity="1.0"
     inkscape:pageopacity="0.0"
     inkscape:pageshadow="2"
     inkscape:zoom="0.175"
     inkscape:cx="3575.6541"
     inkscape:cy="1746.1841"
     inkscape:document-units="px"
     inkscape:current-layer="layer1"
     showgrid="false"
     inkscape:window-width="1863"
     inkscape:window-height="1056"
     inkscape:window-x="57"
     inkscape:window-y="24"
     inkscape:window-maximized="1" />
  <metadata
     id="metadata3478">
    <rdf:RDF>
      <cc:Work
         rdf:about="">
        <dc:format>image/svg+xml</dc:format>
        <dc:type
           rdf:resource="http://purl.org/dc/dcmitype/StillImage" />
        <dc:title></dc:title>
      </cc:Work>
    </rdf:RDF>
  </metadata>
  <g
     inkscape:label="Layer 1"
     inkscape:groupmode="layer"
     id="layer1"
     transform="translate(0,2575.9843)">
    <path
       inkscape:connector-curvature="0"
       id="path3774-9"
       style="display:inline;fill:#2f506a;fill-opacity:1;fill-rule:nonzero;stroke:none;stroke-width:0.25510526"
       d="m 954.82784,-1679.762 -660.1079,0 0,-664.8738 660.1079,0 0,664.8738" />
    <path
       inkscape:connector-curvature="0"
       id="path3776-5"
       style="display:inline;fill:#ffffff;fill-opacity:1;fill-rule:nonzero;stroke:none;stroke-width:0.25510526"
       d="m 954.82784,-2344.6358 -7.5376,0 -322.4118,324.9743 -322.714,-324.9743 -7.4445,0 0,7.4988 322.5977,324.9743 -322.5977,324.9019 0,7.4988 7.4445,0 322.714,-324.7857 322.4118,324.7857 7.5376,0 0,-7.4988 -322.5048,-324.9019 322.5048,-324.9743 0,-7.4988" />
    <path
       inkscape:connector-curvature="0"
       id="path3760-3"
       style="display:inline;fill:#ffffff;fill-opacity:1;fill-rule:nonzero;stroke:none;stroke-width:0.25510526"
       d="m 2175.7331,-2220.4059 -971.1902,0 0,-107.2872 971.1902,0 0,107.2872" />
    <path
       inkscape:connector-curvature="0"
       id="path3760-9"
       style="display:inline;fill:#ffffff;fill-opacity:1;fill-rule:nonzero;stroke:none;stroke-width:0.25510526"
       d="m 2175.7331,-1887.4653 -971.1902,0 0,-107.2872 971.1902,0 0,107.2872" />
    <path
       inkscape:connector-curvature="0"
       id="path3760-4"
       style="display:inline;fill:#ffffff;fill-opacity:1;fill-rule:nonzero;stroke:none;stroke-width:0.25510526"
       d="m 2175.7331,-1548.7592 -971.1902,0 0,-107.2872 971.1902,0 0,107.2872" />
    <path
       inkscape:connector-curvature="0"
       id="path3760-0"
       style="display:inline;fill:#ffffff;fill-opacity:1;fill-rule:nonzero;stroke:none;stroke-width:0.25510526"
       d="m 2175.7331,-1178.9317 -971.1902,0 0,-107.2872 971.1902,0 0,107.2872" />
    <path
       inkscape:connector-curvature="0"
       id="path3760-99"
       style="display:inline;fill:#ffffff;fill-opacity:1;fill-rule:nonzero;stroke:none;stroke-width:0.25510526"
       d="m 2175.7331,-864.01352 -971.1902,0 0,-107.28461 971.1902,0 0,107.28461" />
    <path
       inkscape:connector-curvature="0"
       id="path3760-5"
       style="display:inline;fill:#ffffff;fill-opacity:1;fill-rule:nonzero;stroke:none;stroke-width:0.25510526"
       d="m 2175.7331,-525.4004 -971.1902,0 0,-107.28462 971.1902,0 0,107.28462" />
    <path
       inkscape:connector-curvature="0"
       id="path3760-8"
       style="display:inline;fill:#ffffff;fill-opacity:1;fill-rule:nonzero;stroke:none;stroke-width:0.25510526"
       d="m 2175.7331,-155.66588 -971.1902,0 0,-107.2872 971.1902,0 0,107.2872" />
    <path
       inkscape:connector-curvature="0"
       id="path3774-9-1"
       style="display:inline;fill:#2f506a;fill-opacity:1;fill-rule:nonzero;stroke:none;stroke-width:0.25510526"
       d="m 3172.8887,-1662.1865 -660.1105,0 0,-664.8737 660.1105,0 0,664.8737" />
    <path
       inkscape:connector-curvature="0"
       id="path3776-5-2"
       style="display:inline;fill:#ffffff;fill-opacity:1;fill-rule:nonzero;stroke:none;stroke-width:0.25510526"
       d="m 3172.8887,-2326.9647 -7.5375,0 -322.4144,324.9717 -322.714,-324.9717 -7.4446,0 0,7.4988 322.6004,324.9717 -322.6004,324.9045 0,7.4988 7.4446,0 322.714,-324.7857 322.4144,324.7857 7.5375,0 0,-7.4988 -322.5074,-324.9045 322.5074,-324.9717 0,-7.4988" />
    <path
       inkscape:connector-curvature="0"
       id="path3774-9-1-1"
       style="display:inline;fill:#2f506a;fill-opacity:1;fill-rule:nonzero;stroke:none;stroke-width:0.25510526"
       d="m 3165.6069,-900.99343 -660.1079,0 0,-664.87377 660.1079,0 0,664.87377" />
    <path
       inkscape:connector-curvature="0"
       id="path3776-5-2-2"
       style="display:inline;fill:#ffffff;fill-opacity:1;fill-rule:nonzero;stroke:none;stroke-width:0.25510526"
       d="m 3165.6999,-1565.8672 -7.5375,0 -322.4118,324.9743 -322.7166,-324.9743 -7.442,0 0,7.4988 322.5978,324.9743 -322.5978,324.90188 0,7.49879 7.442,0 322.7166,-324.78567 322.4118,324.78567 7.5375,0 0,-7.49879 -322.5074,-324.90188 322.5074,-324.9743 0,-7.4988" />
    <path
       inkscape:connector-curvature="0"
       id="path3774-9-1-1-7"
       style="display:inline;fill:#2f506a;fill-opacity:1;fill-rule:nonzero;stroke:none;stroke-width:0.25510526"
       d="m 3172.8887,-137.99736 -660.1105,0 0,-664.87377 660.1105,0 0,664.87377" />
    <path
       inkscape:connector-curvature="0"
       id="path3776-5-2-2-1"
       style="display:inline;fill:#ffffff;fill-opacity:1;fill-rule:nonzero;stroke:none;stroke-width:0.25510526"
       d="m 3172.8887,-802.96412 -7.5375,0 -322.4144,324.97167 -322.714,-324.97167 -7.4446,0 0,7.49879 322.6004,324.97167 -322.6004,324.90452 0,7.49879 7.4446,0 322.714,-324.78569 322.4144,324.78569 7.5375,0 0,-7.49879 -322.5074,-324.90452 322.5074,-324.97167 0,-7.49879" />
    <path
       inkscape:connector-curvature="0"
       id="path3774-9-0"
       style="display:inline;fill:#2f506a;fill-opacity:1;fill-rule:nonzero;stroke:none;stroke-width:0.25510526"
       d="m 947.73454,-918.57154 -660.1105,0 0,-664.87376 660.1105,0 0,664.87376" />
    <path
       inkscape:connector-curvature="0"
       id="path3776-5-0"
       style="display:inline;fill:#ffffff;fill-opacity:1;fill-rule:nonzero;stroke:none;stroke-width:0.25510526"
       d="m 947.73454,-1583.4453 -7.5375,0 -322.4144,324.9717 -322.714,-324.9717 -7.4446,0 0,7.4988 322.6004,324.9717 -322.6004,324.90447 0,7.49879 7.4446,0 322.714,-324.78566 322.4144,324.78566 7.5375,0 0,-7.49879 -322.5074,-324.90447 322.5074,-324.9717 0,-7.4988" />
    <path
       inkscape:connector-curvature="0"
       id="path3774-9-0-5"
       style="display:inline;fill:#2f506a;fill-opacity:1;fill-rule:nonzero;stroke:none;stroke-width:0.25510526"
       d="m 946.31384,-155.76146 -660.1079,0 0,-664.87377 660.1079,0 0,664.87377" />
    <path
       inkscape:connector-curvature="0"
       id="path3776-5-0-8"
       style="display:inline;fill:#ffffff;fill-opacity:1;fill-rule:nonzero;stroke:none;stroke-width:0.25510526"
       d="m 946.31384,-820.63523 -7.5349,0 -322.4144,324.97426 -322.7141,-324.97426 -7.4445,0 0,7.49879 322.6004,324.97426 -322.6004,324.90193 0,7.49879 7.4445,0 322.7141,-324.78569 322.4144,324.78569 7.5375,0 0,-7.49879 -322.5074,-324.90193 322.5048,-324.97426 0,-7.49879" />
    <path
       inkscape:connector-curvature="0"
       id="path3760-8-2"
       style="display:inline;fill:#ffffff;fill-opacity:1;fill-rule:nonzero;stroke:none;stroke-width:0.25510526"
       d="m 4393.794,-137.99736 -971.1927,0 0,-107.28462 971.1927,0 0,107.28462" />
    <path
       inkscape:connector-curvature="0"
       id="path3760-8-1"
       style="display:inline;fill:#ffffff;fill-opacity:1;fill-rule:nonzero;stroke:none;stroke-width:0.25510526"
       d="m 4393.6778,-507.73188 -971.1928,0 0,-107.28461 971.1928,0 0,107.28461" />
    <path
       inkscape:connector-curvature="0"
       id="path3760-8-12"
       style="display:inline;fill:#ffffff;fill-opacity:1;fill-rule:nonzero;stroke:none;stroke-width:0.25510526"
       d="m 4393.794,-846.4354 -971.1927,0 0,-107.2872 971.1927,0 0,107.2872" />
    <path
       inkscape:connector-curvature="0"
       id="path3760-8-8"
       style="display:inline;fill:#ffffff;fill-opacity:1;fill-rule:nonzero;stroke:none;stroke-width:0.25510526"
       d="m 4393.794,-1161.2606 -971.1927,0 0,-107.2846 971.1927,0 0,107.2846" />
    <path
       inkscape:connector-curvature="0"
       id="path3760-8-5"
       style="display:inline;fill:#ffffff;fill-opacity:1;fill-rule:nonzero;stroke:none;stroke-width:0.25510526"
       d="m 4393.6778,-1531.0907 -971.1928,0 0,-107.2846 971.1928,0 0,107.2846" />
    <path
       inkscape:connector-curvature="0"
       id="path3760-8-21"
       style="display:inline;fill:#ffffff;fill-opacity:1;fill-rule:nonzero;stroke:none;stroke-width:0.25510526"
       d="m 4393.794,-1869.7994 -971.1927,0 0,-107.2846 971.1927,0 0,107.2846" />
    <path
       inkscape:connector-curvature="0"
       id="path3760-8-0"
       style="display:inline;fill:#ffffff;fill-opacity:1;fill-rule:nonzero;stroke:none;stroke-width:0.25510526"
       d="m 4393.6778,-2202.8304 -971.1928,0 0,-107.2846 971.1928,0 0,107.2846" />
  </g>
</svg>
