<?xml version="1.0" encoding="UTF-8" standalone="no"?>
<!-- Created with Inkscape (http://www.inkscape.org/) -->

<svg
   xmlns:dc="http://purl.org/dc/elements/1.1/"
   xmlns:cc="http://creativecommons.org/ns#"
   xmlns:rdf="http://www.w3.org/1999/02/22-rdf-syntax-ns#"
   xmlns:svg="http://www.w3.org/2000/svg"
   xmlns="http://www.w3.org/2000/svg"
   xmlns:sodipodi="http://sodipodi.sourceforge.net/DTD/sodipodi-0.dtd"
   xmlns:inkscape="http://www.inkscape.org/namespaces/inkscape"
   width="1920mm"
   height="1024mm"
   viewBox="0 0 6803.1496 3628.3464"
   id="svg2"
   version="1.1"
   inkscape:version="0.91 r13725"
   sodipodi:docname="Layer7.svg">
  <defs
     id="defs4" />
  <sodipodi:namedview
     id="base"
     pagecolor="#ffffff"
     bordercolor="#666666"
     borderopacity="1.0"
     inkscape:pageopacity="0.0"
     inkscape:pageshadow="2"
     inkscape:zoom="0.175"
     inkscape:cx="2779.0113"
     inkscape:cy="1544.1014"
     inkscape:document-units="px"
     inkscape:current-layer="layer1"
     showgrid="false"
     inkscape:window-width="1863"
     inkscape:window-height="1056"
     inkscape:window-x="57"
     inkscape:window-y="24"
     inkscape:window-maximized="1" />
  <metadata
     id="metadata7">
    <rdf:RDF>
      <cc:Work
         rdf:about="">
        <dc:format>image/svg+xml</dc:format>
        <dc:type
           rdf:resource="http://purl.org/dc/dcmitype/StillImage" />
        <dc:title></dc:title>
      </cc:Work>
    </rdf:RDF>
  </metadata>
  <g
     inkscape:label="Layer 1"
     inkscape:groupmode="layer"
     id="layer1"
     transform="translate(0,2575.9843)">
    <path
       inkscape:connector-curvature="0"
       id="path3882-6"
       style="display:inline;fill:#99deea;fill-opacity:1;fill-rule:nonzero;stroke:none;stroke-width:0.25510526"
       d="m 265.8174,-155.9072 c 0,51.64792 41.55211,93.506726 92.82655,93.506726 l 2410.77995,0 c 51.0528,0 92.7021,-41.858806 92.7021,-93.506726 l 0,-1918.5792 -2596.3086,0 0,1918.5792" />
    <path
       inkscape:connector-curvature="0"
       id="path3884-6"
       style="display:inline;fill:#ff9955;fill-opacity:1;fill-rule:nonzero;stroke:none;stroke-width:0.25510526"
       d="m 2769.4239,-2310.3695 -2410.77995,0 c -51.27444,0 -92.82655,41.871 -92.82655,93.5219 l 0,142.3612 2596.3086,0 0,-142.3612 c 0,-51.6509 -41.6493,-93.5219 -92.7021,-93.5219" />
    <path
       inkscape:connector-curvature="0"
       id="path3890-1"
       style="display:inline;fill:#ffffff;fill-opacity:1;fill-rule:nonzero;stroke:none;stroke-width:0.25510526"
       d="m 371.99168,-2139.6915 0,0 -42.72724,-43.2737 42.72724,-43.1402 42.83652,43.1402 -42.83652,43.2737" />
    <path
       inkscape:connector-curvature="0"
       id="path3890-8"
       style="display:inline;fill:#ffffff;fill-opacity:1;fill-rule:nonzero;stroke:none;stroke-width:0.25510526"
       d="m 517.37407,-2139.6915 0,0 -42.72725,-43.2737 42.72725,-43.1402 42.83652,43.1402 -42.83652,43.2737" />
    <path
       inkscape:connector-curvature="0"
       id="path3890-83"
       style="display:inline;fill:#ffffff;fill-opacity:1;fill-rule:nonzero;stroke:none;stroke-width:0.25510526"
       d="m 654.10289,-2139.6915 0,0 -42.72713,-43.2737 42.72713,-43.1402 42.83652,43.1402 -42.83652,43.2737" />
  </g>
</svg>
