<?xml version="1.0" encoding="UTF-8" standalone="no"?>
<!-- Created with Inkscape (http://www.inkscape.org/) -->

<svg
   xmlns:dc="http://purl.org/dc/elements/1.1/"
   xmlns:cc="http://creativecommons.org/ns#"
   xmlns:rdf="http://www.w3.org/1999/02/22-rdf-syntax-ns#"
   xmlns:svg="http://www.w3.org/2000/svg"
   xmlns="http://www.w3.org/2000/svg"
   xmlns:sodipodi="http://sodipodi.sourceforge.net/DTD/sodipodi-0.dtd"
   xmlns:inkscape="http://www.inkscape.org/namespaces/inkscape"
   width="1920mm"
   height="1024mm"
   viewBox="0 0 6803.1496 3628.3464"
   id="svg3473"
   version="1.1"
   inkscape:version="0.91 r13725"
   sodipodi:docname="Layer23.svg">
  <defs
     id="defs3475" />
  <sodipodi:namedview
     id="base"
     pagecolor="#ffffff"
     bordercolor="#666666"
     borderopacity="1.0"
     inkscape:pageopacity="0.0"
     inkscape:pageshadow="2"
     inkscape:zoom="0.175"
     inkscape:cx="3575.6541"
     inkscape:cy="1746.1841"
     inkscape:document-units="px"
     inkscape:current-layer="layer1"
     showgrid="false"
     inkscape:window-width="1863"
     inkscape:window-height="1056"
     inkscape:window-x="57"
     inkscape:window-y="24"
     inkscape:window-maximized="1" />
  <metadata
     id="metadata3478">
    <rdf:RDF>
      <cc:Work
         rdf:about="">
        <dc:format>image/svg+xml</dc:format>
        <dc:type
           rdf:resource="http://purl.org/dc/dcmitype/StillImage" />
        <dc:title></dc:title>
      </cc:Work>
    </rdf:RDF>
  </metadata>
  <g
     inkscape:label="Layer 1"
     inkscape:groupmode="layer"
     id="layer1"
     transform="translate(0,2575.9843)">
    <path
       inkscape:connector-curvature="0"
       id="path3696-9"
       style="display:inline;fill:#1f3448;fill-opacity:1;fill-rule:nonzero;stroke:none;stroke-width:0.25510526"
       d="m 1062.6763,-869.48563 -38.2558,-149.77897 c -11.5383,0.5949 -23.0767,0.9152 -34.61495,0.9152 -13.9422,0 -27.898,-0.4881 -41.8538,-1.449 l -28.7506,95.72638 -0.7931,-482.92078 c 23.5983,8.317 49.2923,8.8448 74.0254,7.1106 56.33275,-3.9504 112.57555,-23.2079 155.61135,-66.5061 57.3074,-57.771 76.4567,-139.3982 57.4035,-213.0683 l 196.608,0 c 28.174,0 50.9762,-22.9699 50.9762,-51.24 l 0,-9.0782 43.4614,0 231.8011,0 8.2561,27.5091 -145.1941,44.1553 c 1.995,25.6833 1.995,51.4063 0.5338,77.1445 l 148.7372,38.4267 -54.5071,213.8842 -145.4122,-37.6792 c -14.7672,33.1966 -32.3623,65.1882 -53.2289,95.673 l 102.3779,103.1847 -155.0151,156.0034 -102.2802,-102.9773 c -30.3155,20.9765 -62.1836,38.7027 -94.973,53.4669 l 37.2949,146.5866 -212.2126,54.91737"
       sodipodi:nodetypes="ccscccsccsscccccccccccccccc" />
    <path
       inkscape:connector-curvature="0"
       id="path3696-9-4"
       style="display:inline;fill:#1f3448;fill-opacity:1;fill-rule:nonzero;stroke:none;stroke-width:0.25510526"
       d="m 224.56955,-1548.5538 149.7789,-38.2558 c -0.5948,-11.5399 -0.9151,-23.0783 -0.9151,-34.6166 0,-13.9421 0.4881,-27.898 1.449,-41.8538 l -95.7249,-28.7505 482.2085,0.1525 c -9.737,23.5983 -6.4227,48.699 -4.8182,72.9989 3.7124,56.2566 21.6278,112.7327 64.9244,155.7701 57.7711,57.3074 139.3983,76.4551 213.06975,57.4035 l 0,196.608 c 0,28.1725 22.97,50.9746 51.2401,50.9746 l 9.0766,0 0,43.4629 1.8959,231.32682 -29.4049,8.72888 -42.2595,-145.6669 c -25.68175,1.9935 -51.40625,1.9935 -77.14295,0.5338 l -38.4266,148.73722 -213.8858,-54.50556 37.6792,-145.41216 c -33.195,-14.7673 -65.1882,-32.3639 -95.6714,-53.229 l -103.1863,102.3764 -156.0034,-155.0135 102.9789,-102.2803 c -20.978,-30.3185 -38.7042,-62.1866 -53.4684,-94.9744 l -146.5867,37.2933 -54.9158,-212.2126"
       sodipodi:nodetypes="ccscccsccsscccccccccccccccc" />
    <path
       inkscape:connector-curvature="0"
       id="path3696-9-6"
       style="display:inline;fill:#1f3448;fill-opacity:1;fill-rule:nonzero;stroke:none;stroke-width:0.25510526"
       d="m 1741.1405,-1706.3723 -149.7805,38.2558 c 0.5949,11.5384 0.9152,23.0767 0.9152,34.6166 0,13.9421 -0.4881,27.8979 -1.449,41.8538 l 95.7264,28.7506 -482.1643,-0.1526 c 8.3171,-23.5999 9.673,-47.7961 7.7893,-72.5185 -4.2645,-56.017 -24.6431,-113.1811 -67.9413,-156.2169 -57.771,-57.3089 -139.3982,-76.4567 -213.06815,-57.405 l 0,-196.608 c 0,-28.1725 -22.97,-50.9747 -51.2401,-50.9747 l -9.0781,0 0,-43.4629 0,-231.7996 27.509,-8.2561 44.1553,145.1926 c 25.6833,-1.9935 51.4063,-1.9935 77.14445,-0.5338 l 38.4266,-148.7372 213.8843,54.5055 -37.6792,145.4138 c 33.1966,14.7657 65.1882,32.3623 95.673,53.2274 l 103.1847,-102.3764 156.0034,155.0135 -102.9773,102.2818 c 20.9765,30.3139 38.7027,62.1836 53.4669,94.9714 l 146.5866,-37.2933 54.9174,212.2111"
       sodipodi:nodetypes="ccscccsccsscccccccccccccccc" />
    <path
       inkscape:connector-curvature="0"
       id="path3696-9-7"
       style="display:inline;fill:#1f3448;fill-opacity:1;fill-rule:nonzero;stroke:none;stroke-width:0.25510526"
       d="m 904.92655,-2385.9148 38.2558,149.7789 c 11.5383,-0.5948 23.0767,-0.9151 34.615,-0.9151 13.9421,0 27.89945,0.4881 41.85525,1.449 l 28.7491,-95.7264 0.244,483.6315 c -25.8343,-6.1939 -47.7381,-6.9108 -73.31465,-6.2412 -56.3129,1.4795 -112.7342,21.6277 -155.77,64.9259 -57.3074,57.7711 -76.4566,139.3983 -57.4035,213.0683 l -196.608,0 c -28.174,0 -50.9762,22.97 -50.9762,51.2401 l 0,9.0781 -43.4613,0 -231.8012,0 -8.2545,-27.509 145.1926,-44.1554 c -1.9935,-25.6833 -1.9935,-51.4063 -0.5339,-77.1445 l -148.7372,-38.4266 54.5056,-213.8843 145.4122,37.6793 c 14.7673,-33.1966 32.3638,-65.1883 53.2289,-95.673 l -102.3763,-103.1847 155.0135,-156.0034 102.2803,102.9773 c 30.3154,-20.9765 62.1835,-38.7027 94.9729,-53.4669 l -37.2949,-146.5866 212.2126,-54.9174"
       sodipodi:nodetypes="ccscccsccsscccccccccccccccc" />
  </g>
</svg>
