<?xml version="1.0" encoding="UTF-8" standalone="no"?>
<!-- Created with Inkscape (http://www.inkscape.org/) -->

<svg
   xmlns:dc="http://purl.org/dc/elements/1.1/"
   xmlns:cc="http://creativecommons.org/ns#"
   xmlns:rdf="http://www.w3.org/1999/02/22-rdf-syntax-ns#"
   xmlns:svg="http://www.w3.org/2000/svg"
   xmlns="http://www.w3.org/2000/svg"
   xmlns:sodipodi="http://sodipodi.sourceforge.net/DTD/sodipodi-0.dtd"
   xmlns:inkscape="http://www.inkscape.org/namespaces/inkscape"
   width="1920mm"
   height="1024mm"
   viewBox="0 0 6803.1496 3628.3464"
   id="svg3473"
   version="1.1"
   inkscape:version="0.91 r13725"
   sodipodi:docname="Layer2.svg">
  <defs
     id="defs3475" />
  <sodipodi:namedview
     id="base"
     pagecolor="#ffffff"
     bordercolor="#666666"
     borderopacity="1.0"
     inkscape:pageopacity="0.0"
     inkscape:pageshadow="2"
     inkscape:zoom="0.175"
     inkscape:cx="3575.6541"
     inkscape:cy="1746.1841"
     inkscape:document-units="px"
     inkscape:current-layer="layer1"
     showgrid="false"
     inkscape:window-width="1863"
     inkscape:window-height="1056"
     inkscape:window-x="57"
     inkscape:window-y="24"
     inkscape:window-maximized="1" />
  <metadata
     id="metadata3478">
    <rdf:RDF>
      <cc:Work
         rdf:about="">
        <dc:format>image/svg+xml</dc:format>
        <dc:type
           rdf:resource="http://purl.org/dc/dcmitype/StillImage" />
        <dc:title></dc:title>
      </cc:Work>
    </rdf:RDF>
  </metadata>
  <g
     inkscape:label="Layer 1"
     inkscape:groupmode="layer"
     id="layer1"
     transform="translate(0,2575.9843)">
    <path
       d="m 768.70012,-1837.4982 c 88.4199,-89.0709 231.80318,-89.0709 320.22528,0 88.4999,89.1533 88.4999,233.51 0,322.6632 -88.4221,89.071 -231.80538,89.071 -320.22528,0 -88.3421,-89.1532 -88.3421,-233.5099 0,-322.6632 m 333.97448,427.239 49.5745,-40.7054 c 46.3522,-46.7144 75.2929,-104.1936 86.7799,-164.455 3.9023,-20.0805 5.8645,-40.4654 5.8645,-60.7881 0,-20.3227 -1.9556,-40.8054 -5.8645,-60.8859 -11.487,-60.0814 -40.4277,-117.6627 -86.7799,-164.2749 l -49.5745,-40.8055 c -34.9452,-23.3072 -73.6328,-38.812 -113.50038,-46.6144 -19.9338,-3.8712 -40.0276,-5.8268 -60.4392,-5.8268 -80.7597,0 -161.6772,31.1096 -223.4386,93.2467 -61.6837,62.217 -92.5644,143.73 -92.5644,225.1608 l 0.5333,5.2624 c 1.3334,79.7796 31.5852,159.0926 92.0178,219.9807 l 40.5743,33.2252 c 106.2447,76.5529 248.448,79.5374 356.80168,7.4802"
       style="display:inline;fill:#4bb9d4;fill-opacity:1;fill-rule:nonzero;stroke:none;stroke-width:0.25510526"
       id="path3712-8"
       inkscape:connector-curvature="0" />
    <path
       d="m 393.51352,-1676.2077 c 0,297.7626 239.619,539.2349 535.217,539.2349 l 0,-220.7452 c -64.2637,0 -128.2141,-20.6471 -182.862,-60.0214 l -40.5743,-33.2252 c -60.4326,-60.8881 -90.6888,-140.2011 -92.0178,-219.9807 l -0.5333,-5.2624 c 0,-81.4308 30.8807,-162.9438 92.5644,-225.1608 61.7615,-62.1371 142.6789,-93.2467 223.4386,-93.2467 l 0,-220.7452 c -295.5981,0 -535.217,241.2901 -535.217,539.1527"
       style="display:inline;fill:#99deea;fill-opacity:1;fill-rule:nonzero;stroke:none;stroke-width:0.25510526"
       id="path3714-6"
       inkscape:connector-curvature="0" />
    <path
       d="m 393.51352,-1676.2099 c 0,-297.8626 239.619,-539.1527 535.217,-539.1527 l 0,-81.453 -32.9918,-0.2889 -39.1676,-153.9726 -218.1985,56.4725 38.3853,150.6658 c -33.7741,15.2603 -66.3749,33.4674 -97.6467,55.039 l -105.1514,-105.9269 -159.3304,160.4238 105.1514,105.9269 c -21.3427,31.3496 -39.4809,64.2749 -54.4902,98.3668 l -149.4791,-38.6787 -56.1324,219.7985 152.8392,39.4565 c -1.489,26.3917 -1.4001,52.8412 0.6222,79.233 l -149.248,45.5255 65.1238,217.1162 141.5833,-43.0655 c 13.9959,30.0007 30.2563,59.0525 49.1767,86.7754 l -100.9312,101.8335 159.3304,160.3438 100.929,-101.6735 c 27.6762,19.1538 56.4458,35.5231 86.2332,49.6167 l -42.841,142.56115 215.6962,65.66599 45.0299,-150.34354 45.5033,0.3333 0,-81.3508 c -295.5981,0 -535.2193,-241.4723 -535.2193,-539.2327"
       style="display:inline;fill:#d9f3f8;fill-opacity:1;fill-rule:nonzero;stroke:none;stroke-width:0.25510526"
       id="path3702-9"
       inkscape:connector-curvature="0" />
    <path
       d="m 1463.952,-1676.2277 c 0,297.8648 -239.6189,539.1549 -535.21698,539.1549 l 0,81.4508 32.9919,0.3112 39.16758,153.97024 218.1984,-56.47022 -38.3853,-150.66572 c 33.7741,-15.2626 66.3749,-33.4675 97.6467,-55.0413 l 105.1514,105.9291 159.3304,-160.4238 -105.1513,-105.9291 c 21.3427,-31.3496 39.4809,-64.2726 54.4901,-98.3668 l 149.4791,38.6698 56.1324,-219.7985 -152.8391,-39.4543 c 1.4889,-26.3917 1.4,-52.8434 -0.6223,-79.2351 l 149.248,-45.5233 -65.1238,-217.1185 -141.5833,43.0655 c -13.9959,-30.0007 -30.2585,-59.0525 -49.1767,-86.7732 l 100.9313,-101.8357 -159.3305,-160.3416 -100.929,101.6735 c -27.6762,-19.1538 -56.4458,-35.5252 -86.2331,-49.6189 l 42.841,-142.5589 -215.6962,-65.666 -45.02998,150.3435 -45.5033,-0.3333 0,81.3508 c 295.59808,0 535.21928,241.4723 535.21928,539.2349"
       style="display:inline;fill:#d9f3f8;fill-opacity:1;fill-rule:nonzero;stroke:none;stroke-width:0.25510526"
       id="path3702-9-2"
       inkscape:connector-curvature="0" />
    <path
       d="m 1463.9498,-1676.1299 c 0,-297.7626 -239.6212,-539.2327 -535.21928,-539.2327 l 0,220.7452 c 64.266,0 128.21638,20.6449 182.86438,60.0192 l 40.5742,33.2274 c 60.4326,60.8859 90.6866,140.2011 92.0178,219.9785 l 0.5333,5.2624 c 0,81.433 -30.8829,162.9438 -92.5644,225.1631 -61.7614,62.137 -142.6789,93.2444 -223.43858,93.2444 l 0,220.7474 c 295.59808,0 535.21708,-241.2901 535.21708,-539.1549"
       style="display:inline;fill:#99deea;fill-opacity:1;fill-rule:nonzero;stroke:none;stroke-width:0.25510526"
       id="path3714-6-0"
       inkscape:connector-curvature="0" />
  </g>
</svg>
