<?xml version="1.0" encoding="UTF-8" standalone="no"?>
<!-- Created with Inkscape (http://www.inkscape.org/) -->

<svg
   xmlns:dc="http://purl.org/dc/elements/1.1/"
   xmlns:cc="http://creativecommons.org/ns#"
   xmlns:rdf="http://www.w3.org/1999/02/22-rdf-syntax-ns#"
   xmlns:svg="http://www.w3.org/2000/svg"
   xmlns="http://www.w3.org/2000/svg"
   xmlns:sodipodi="http://sodipodi.sourceforge.net/DTD/sodipodi-0.dtd"
   xmlns:inkscape="http://www.inkscape.org/namespaces/inkscape"
   width="1920mm"
   height="1024mm"
   viewBox="0 0 6803.1496 3628.3464"
   id="svg3473"
   version="1.1"
   inkscape:version="0.91 r13725"
   sodipodi:docname="Layer10.svg">
  <defs
     id="defs3475" />
  <sodipodi:namedview
     id="base"
     pagecolor="#ffffff"
     bordercolor="#666666"
     borderopacity="1.0"
     inkscape:pageopacity="0.0"
     inkscape:pageshadow="2"
     inkscape:zoom="0.175"
     inkscape:cx="3575.6541"
     inkscape:cy="1746.1841"
     inkscape:document-units="px"
     inkscape:current-layer="layer1"
     showgrid="false"
     inkscape:window-width="1863"
     inkscape:window-height="1056"
     inkscape:window-x="57"
     inkscape:window-y="24"
     inkscape:window-maximized="1" />
  <metadata
     id="metadata3478">
    <rdf:RDF>
      <cc:Work
         rdf:about="">
        <dc:format>image/svg+xml</dc:format>
        <dc:type
           rdf:resource="http://purl.org/dc/dcmitype/StillImage" />
        <dc:title></dc:title>
      </cc:Work>
    </rdf:RDF>
  </metadata>
  <g
     inkscape:label="Layer 1"
     inkscape:groupmode="layer"
     id="layer1"
     transform="translate(0,2575.9843)">
    <path
       inkscape:connector-curvature="0"
       id="path3834-8"
       style="display:inline;fill:#ffffff;fill-opacity:1;fill-rule:nonzero;stroke:none;stroke-width:0.25510526"
       d="m 256.13996,-586.32166 c 0,42.12678 33.8618,76.2581 75.6171,76.2581 l 1965.05514,0 c 41.7576,0 75.6193,-34.13132 75.6193,-76.2581 l 0,-1563.81434 -2116.29154,0 0,1563.81434" />
    <path
       inkscape:connector-curvature="0"
       id="path3836-7"
       style="display:inline;fill:#ff9955;fill-opacity:1;fill-rule:nonzero;stroke:none;stroke-width:0.25510526"
       d="m 2296.8122,-2342.3713 -1965.05514,0 c -41.7553,0 -75.6171,34.1109 -75.6171,76.2581 l 0,115.9772 2116.29154,0 0,-115.9772 c 0,-42.1472 -33.8617,-76.2581 -75.6193,-76.2581" />
    <path
       inkscape:connector-curvature="0"
       id="path3842-7"
       style="display:inline;fill:#ffffff;fill-opacity:1;fill-rule:nonzero;stroke:none;stroke-width:0.25510526"
       d="m 342.58836,-2203.4406 0,0 c -19.1937,0 -34.8199,-15.6376 -34.8199,-35.1597 0,-19.3363 15.6262,-35.1369 34.8199,-35.1369 19.2774,0 34.9852,15.8006 34.9852,35.1369 0,19.5221 -15.7078,35.1597 -34.9852,35.1597" />
    <path
       inkscape:connector-curvature="0"
       id="path3842-5"
       style="display:inline;fill:#ffffff;fill-opacity:1;fill-rule:nonzero;stroke:none;stroke-width:0.25510526"
       d="m 461.22916,-2203.4406 0,0 c -19.1959,0 -34.8222,-15.6376 -34.8222,-35.1597 0,-19.3363 15.6263,-35.1369 34.8222,-35.1369 19.2752,0 34.983,15.8006 34.983,35.1369 0,19.5221 -15.7078,35.1597 -34.983,35.1597" />
    <path
       inkscape:connector-curvature="0"
       id="path3842-8"
       style="display:inline;fill:#ffffff;fill-opacity:1;fill-rule:nonzero;stroke:none;stroke-width:0.25510526"
       d="m 572.62646,-2203.4406 0,0 c -19.1959,0 -34.8221,-15.6376 -34.8221,-35.1597 0,-19.3363 15.6262,-35.1369 34.8221,-35.1369 19.2775,0 34.983,15.8006 34.983,35.1369 0,19.5221 -15.7055,35.1597 -34.983,35.1597" />
  </g>
</svg>
